# xmcd CD database file
#
# Track frame offsets:
#	150
#	11307
#	20154
#	34539
#	52927
#	70344
#	88993
#	99889
#	112746
#	138957
#	157402
#	173980
#	190845
#	201827
#	224610
#
# Disc length: 3316 seconds
#
# Revision: 0
# Processed by: cddbd v1.5.1PL2 Copyright (c) Steve Scherf et al.
# Submitted via: CDex 1.51
#
DISCID=cd0cf20f
DTITLE=Bernd Chudalla and Tresch Amigosch - D'oinzig woare Schproach
DYEAR=1900
DGENRE=Blues
TTITLE0=Baby Song
TTITLE1=Dr halbdode Mensch
TTITLE2=Komm lass Krachha
TTITLE3=Song vom Stobbel
TTITLE4=Ballade vom Günter
TTITLE5=I schreib mei Liad
TTITLE6=Fruscht
TTITLE7=Nacktbadestrand
TTITLE8=Abschpülblues
TTITLE9=Oin Schritrt z langsam
TTITLE10=Sommerszeit
TTITLE11=Aber i leb no
TTITLE12=Koi Geld, koi Wohnung, koi Arbeit
TTITLE13=Hymne auf s Cafe
TTITLE14=Karle C
EXTD=
EXTT0=
EXTT1=
EXTT2=
EXTT3=
EXTT4=
EXTT5=
EXTT6=
EXTT7=
EXTT8=
EXTT9=
EXTT10=
EXTT11=
EXTT12=
EXTT13=
EXTT14=
PLAYORDER=
